# xmcd CD database file
#
# Track frame offsets:
#	150
#	16369
#	29399
#	37700
#	48928
#	70790
#	88569
#	110713
#	123300
#	135686
#	148255
#	173258
#	186937
#	197208
#	211156
#	214395
#
# Disc length: 3025 seconds
#
# Revision: 0
# Processed by: cddbd v1.5.2PL0 Copyright (c) Steve Scherf et al.
# Submitted via: CDex 1.70beta2
#
DISCID=e30bcf10
DTITLE=Duke Ellington - A drum is a woman
DYEAR=1956
DGENRE=Jazz
TTITLE0=A drum is a woman
TTITLE1=Rythm pum te dum
TTITLE2=What else you do with a drum
TTITLE3=New orleans
TTITLE4=Hey, buddy bolden
TTITLE5=Carribee Joe
TTITLE6=Congo square
TTITLE7=A drum is a woman (part 2)
TTITLE8=You better know it
TTITLE9=Madam Zajj
TTITLE10=Ballet of the flying saucers
TTITLE11=Zajj's dream
TTITLE12=Rhumbop
TTITLE13=Carribee Joe (part 2)
TTITLE14=Finale
TTITLE15=Pomegranate
EXTD=YEAR: 1956
EXTT0=
EXTT1=
EXTT2=
EXTT3=
EXTT4=
EXTT5=
EXTT6=
EXTT7=
EXTT8=
EXTT9=
EXTT10=
EXTT11=
EXTT12=
EXTT13=
EXTT14=
EXTT15=
PLAYORDER=
